<?xml version="1.0" encoding="UTF-8"?>
<svg version="1.1" xmlns="http://www.w3.org/2000/svg" width="1235" height="928">
<path d="M0 0 C1.29033016 -0.00611329 1.29033016 -0.00611329 2.6067276 -0.01235008 C7.17889659 -0.03315221 11.75103627 -0.04746723 16.32324219 -0.05688477 C20.04086138 -0.06565653 23.75809599 -0.08632675 27.47558594 -0.1184082 C49.78247601 -0.30660471 71.18696021 0.26743905 93.203125 4.23828125 C94.70153498 4.49316859 96.20005435 4.74741461 97.69873047 5.00073242 C101.07125129 5.60247497 104.4167615 6.26762319 107.765625 6.98828125 C108.94503662 7.23868164 110.12444824 7.48908203 111.33959961 7.74707031 C142.87068222 14.64089537 173.16794831 25.1938396 202.203125 39.23828125 C203.88919999 40.03541631 205.57539354 40.83230067 207.26171875 41.62890625 C233.74127163 54.32010231 258.52956452 70.60989787 281.203125 89.23828125 C281.7501709 89.68768066 282.2972168 90.13708008 282.86083984 90.60009766 C294.5535837 100.2578313 305.59316002 110.53407629 316.35406494 121.21398926 C317.36128732 122.21316986 318.36998531 123.21086566 319.38031006 124.20690918 C326.12697421 130.86828653 332.29879957 137.81825702 338.203125 145.23828125 C339.06651097 146.2658332 339.93490236 147.28924635 340.8125 148.3046875 C401.41532288 218.97111783 433.11059115 313.84665185 432.640625 406.30078125 C432.63606293 408.22161026 432.63606293 408.22161026 432.63140869 410.1812439 C432.55933266 430.79130512 431.65521882 450.91191147 428.203125 471.23828125 C427.98881836 472.51719238 427.77451172 473.79610352 427.55371094 475.11376953 C423.31134432 499.63860071 417.09261678 523.97070995 408.203125 547.23828125 C409.01418701 547.48271973 409.82524902 547.7271582 410.66088867 547.97900391 C414.9044303 549.48759773 418.8463782 551.39192316 422.87890625 553.38671875 C423.71237076 553.79513504 424.54583527 554.20355133 425.40455627 554.62434387 C427.18593055 555.49771761 428.96648188 556.37277152 430.74627686 557.24935913 C434.48350288 559.08996745 438.22467936 560.9224745 441.96575928 562.75523376 C443.82552924 563.66635216 445.68510864 564.57785962 447.54449463 565.48976135 C454.37241791 568.83711005 461.21629248 572.14841772 468.078125 575.42578125 C477.88863352 580.11649076 487.67381678 584.85798209 497.453125 589.61328125 C508.19582298 594.83688099 518.94309502 600.05046328 529.703125 605.23828125 C541.13191958 610.74899075 552.54716008 616.2871793 563.95819092 621.83456421 C573.74030269 626.58977586 583.52946763 631.32973659 593.328125 636.05078125 C601.71395962 640.09129378 610.08875549 644.15352112 618.453125 648.23828125 C619.34981903 648.67613449 620.24651306 649.11398773 621.17037964 649.56510925 C625.59121711 651.72425902 630.01124907 653.88503819 634.43017578 656.0480957 C643.47919035 660.47304265 652.54500888 664.85464619 661.67349243 669.11384583 C666.92078639 671.57701664 672.04207054 674.23142292 677.140625 676.98828125 C684.8875082 681.13553635 692.78050142 684.88458319 700.765625 688.55078125 C705.58098091 690.77380972 710.39367434 693.00250787 715.203125 695.23828125 C715.80815857 695.51903503 716.41319214 695.79978882 717.03656006 696.08905029 C721.1922117 698.02130302 725.32562213 699.99639588 729.453125 701.98828125 C730.51732666 702.48239502 731.58152832 702.97650879 732.67797852 703.4855957 C745.73534553 709.8711776 753.08609493 721.18958072 758.32485962 734.4412384 C759.75130417 738.98408685 759.79452196 743.34394593 759.76953125 748.07421875 C759.77572983 749.0748233 759.78192841 750.07542786 759.78831482 751.10635376 C759.79537273 753.20891353 759.79231009 755.31152966 759.77954102 757.4140625 C759.76568833 760.59872265 759.79979369 763.78043128 759.83789062 766.96484375 C759.87887588 777.71888993 759.82242875 786.77253007 754.203125 796.23828125 C753.64915039 797.21095947 753.09517578 798.1836377 752.52441406 799.18579102 C742.19965133 816.77927655 725.76588857 829.60718029 706.140625 835.17578125 C695.51153974 837.64324747 685.89434268 839.20422668 676.328125 833.30078125 C675.58546387 832.86620605 674.84280273 832.43163086 674.07763672 831.98388672 C671.43714749 830.42689217 668.82035452 828.83405427 666.203125 827.23828125 C664.55648522 826.24617084 662.90982661 825.25409135 661.26266479 824.2628479 C655.87256034 821.01741128 650.49821293 817.74702398 645.1328125 814.4609375 C640.76377488 811.78567738 636.37609476 809.1454901 631.9609375 806.546875 C631.02362793 805.99370605 630.08631836 805.44053711 629.12060547 804.87060547 C627.38090915 803.84678639 625.63788102 802.82860163 623.89111328 801.81689453 C623.1329834 801.36942871 622.37485352 800.92196289 621.59375 800.4609375 C620.93407227 800.07687744 620.27439453 799.69281738 619.59472656 799.29711914 C619.13549805 798.94770264 618.67626953 798.59828613 618.203125 798.23828125 C618.203125 797.57828125 618.203125 796.91828125 618.203125 796.23828125 C617.49583252 795.97523193 616.78854004 795.71218262 616.05981445 795.44116211 C613.03495683 794.16746982 610.32320819 792.65904511 607.49609375 790.9921875 C606.36872803 790.32960938 605.2413623 789.66703125 604.07983398 788.984375 C602.85001656 788.25664744 601.62028269 787.52877867 600.390625 786.80078125 C599.10047659 786.04013592 597.81019052 785.27972401 596.51977539 784.51953125 C593.10300605 782.50514323 589.68915787 780.48585655 586.27612305 778.46514893 C584.2387587 777.25937043 582.20057644 776.05498737 580.16210938 774.85107422 C564.98480474 765.88591649 549.85761997 756.84459887 534.80737305 747.66772461 C525.03838658 741.71728048 515.20156155 735.88413469 505.35653687 730.06060791 C498.19374226 725.82191402 491.03872224 721.58136848 484.015625 717.11328125 C472.59314988 709.85680063 460.80999396 703.17309564 449.12139893 696.35723877 C443.56223982 693.11449914 438.00694028 689.86516296 432.453125 686.61328125 C431.85139465 686.26106506 431.24966431 685.90884888 430.62969971 685.54595947 C421.15739124 679.9990148 411.73511197 674.37256609 402.33227539 668.70849609 C392.29206337 662.66967155 382.17361711 656.76797063 372.04052734 650.88671875 C367.09060561 648.01097692 362.1470722 645.12427865 357.203125 642.23828125 C356.92331787 642.82746338 356.64351074 643.41664551 356.35522461 644.02368164 C355.28932349 646.07258798 354.14690443 647.8235511 352.76953125 649.671875 C352.2912085 650.31415039 351.81288574 650.95642578 351.32006836 651.61816406 C350.80710205 652.29717773 350.29413574 652.97619141 349.765625 653.67578125 C349.23138916 654.38444336 348.69715332 655.09310547 348.14672852 655.82324219 C343.0676489 662.50541333 337.74465023 668.93647948 332.203125 675.23828125 C331.05263672 676.55699219 331.05263672 676.55699219 329.87890625 677.90234375 C323.87965928 684.60681621 317.56346539 691.00512287 311.22741699 697.38922119 C310.22823639 698.39644357 309.23054059 699.40514156 308.23449707 700.41546631 C301.57465913 707.16057133 294.61654512 713.31965907 287.203125 719.23828125 C286.10140922 720.17319323 285.00506311 721.11453235 283.91796875 722.06640625 C230.29250643 768.82841278 160.36132055 797.82155098 90.765625 809.55078125 C90.04133301 809.67415863 89.31704102 809.79753601 88.57080078 809.9246521 C66.94976251 813.56578899 45.61799081 814.61685853 23.703125 814.55078125 C22.41810089 814.5486261 21.13307678 814.54647095 19.80911255 814.54425049 C1.41678415 814.4947106 -16.61047055 814.19496664 -34.796875 811.23828125 C-36.07530273 811.03960449 -37.35373047 810.84092773 -38.67089844 810.63623047 C-77.91828828 804.47457033 -115.82891225 793.19935265 -151.796875 776.23828125 C-152.78993652 775.77196289 -153.78299805 775.30564453 -154.80615234 774.82519531 C-183.44992651 761.25096244 -210.30107493 744.36379948 -234.796875 724.23828125 C-235.3439209 723.78888184 -235.8909668 723.33948242 -236.45458984 722.87646484 C-248.1473337 713.2187312 -259.18691002 702.94248621 -269.94781494 692.26257324 C-270.95503732 691.26339264 -271.96373531 690.26569684 -272.97406006 689.26965332 C-279.72072421 682.60827597 -285.89254957 675.65830548 -291.796875 668.23828125 C-292.66026097 667.2107293 -293.52865236 666.18731615 -294.40625 665.171875 C-348.81150552 601.73217011 -385.0566446 512.86793343 -385.1328125 428.9140625 C-385.13927471 427.19418743 -385.14600527 425.47431335 -385.15298462 423.75444031 C-385.16485657 420.16854316 -385.1686765 416.58274153 -385.16748047 412.99682617 C-385.1673189 409.38919818 -385.18106808 405.78208329 -385.20849609 402.17456055 C-385.93555733 305.0189929 -349.83128222 211.29830967 -285.796875 138.23828125 C-285.03117187 137.36042969 -284.26546875 136.48257813 -283.4765625 135.578125 C-277.47550778 128.87276643 -271.15853474 122.47276898 -264.82116699 116.08734131 C-263.82198639 115.08011893 -262.82429059 114.07142094 -261.82824707 113.06109619 C-255.16840913 106.31599117 -248.21029512 100.15690343 -240.796875 94.23828125 C-239.69515922 93.30336927 -238.59881311 92.36203015 -237.51171875 91.41015625 C-178.87989067 40.28254245 -102.9320741 12.08806184 -26.796875 1.23828125 C-25.51868896 1.05418701 -24.24050293 0.87009277 -22.92358398 0.68041992 C-15.32275419 -0.12885602 -7.63573773 0.03086576 0 0 Z M-42.796875 72.23828125 C-43.9626709 72.47885254 -45.1284668 72.71942383 -46.32958984 72.96728516 C-60.07058122 75.86883142 -73.51937435 79.67599198 -86.796875 84.23828125 C-87.65313477 84.52928711 -88.50939453 84.82029297 -89.39160156 85.12011719 C-128.9132577 98.65689321 -164.77519203 119.46676581 -196.796875 146.23828125 C-197.30379883 146.65352051 -197.81072266 147.06875977 -198.33300781 147.49658203 C-212.32947194 158.96340998 -225.8542092 171.62449666 -236.98046875 185.9296875 C-238.74055688 188.16670274 -240.60398507 190.22224808 -242.546875 192.30078125 C-256.1327606 207.41133537 -266.51110911 225.36730442 -276.49951172 242.95458984 C-277.29397612 244.35305052 -278.09170172 245.74967255 -278.89501953 247.14306641 C-298.95819623 282.0649514 -309.48508139 321.7424943 -315.796875 361.23828125 C-315.97492676 362.20620605 -316.15297852 363.17413086 -316.33642578 364.17138672 C-318.3759485 376.68374014 -318.17149472 389.30404013 -318.16748047 401.94873047 C-318.16723978 405.93748582 -318.2081355 409.92548794 -318.24609375 413.9140625 C-318.38841647 446.46566197 -312.35919742 478.18906842 -302.796875 509.23828125 C-302.55275879 510.0576416 -302.30864258 510.87700195 -302.05712891 511.72119141 C-294.98424993 535.34563292 -284.34038865 558.04045723 -271.796875 579.23828125 C-271.38904785 579.93131348 -270.9812207 580.6243457 -270.56103516 581.33837891 C-259.86067798 599.3675119 -247.27288371 616.1888541 -233.1328125 631.65625 C-231.22725378 633.76256156 -229.36433168 635.89388016 -227.5078125 638.04296875 C-223.83848925 642.24328778 -219.99228337 646.23517673 -216.046875 650.17578125 C-215.3458667 650.87598389 -214.6448584 651.57618652 -213.92260742 652.29760742 C-209.29934056 656.86681338 -204.59078566 661.10609052 -199.47265625 665.1171875 C-197.03922819 667.0461677 -194.70528629 669.05881481 -192.375 671.11010742 C-179.11353424 682.69132249 -164.02669485 692.04781976 -148.90527344 700.99023438 C-147.55350309 701.79040228 -146.20488035 702.59592602 -144.86035156 703.40820312 C-118.84089764 719.10420408 -89.24386735 730.05678445 -59.796875 737.23828125 C-59.17587921 737.39041077 -58.55488342 737.54254028 -57.91506958 737.69927979 C-10.76879976 749.19843867 41.52728521 751.32899813 89.203125 741.23828125 C90.3689209 740.99770996 91.5347168 740.75713867 92.73583984 740.50927734 C106.47683122 737.60773108 119.92562435 733.80057052 133.203125 729.23828125 C134.48751465 728.80177246 134.48751465 728.80177246 135.79785156 728.35644531 C175.3195077 714.81966929 211.18144203 694.00979669 243.203125 667.23828125 C243.71004883 666.82304199 244.21697266 666.40780273 244.73925781 665.97998047 C258.73572194 654.51315252 272.2604592 641.85206584 283.38671875 627.546875 C285.14680688 625.30985976 287.01023507 623.25431442 288.953125 621.17578125 C302.5390106 606.06522713 312.91735911 588.10925808 322.90576172 570.52197266 C323.70022612 569.12351198 324.49795172 567.72688995 325.30126953 566.33349609 C345.36444623 531.4116111 355.89133139 491.7340682 362.203125 452.23828125 C362.38117676 451.27035645 362.55922852 450.30243164 362.74267578 449.30517578 C364.7821985 436.79282236 364.57774472 424.17252237 364.57373047 411.52783203 C364.57348978 407.53907668 364.6143855 403.55107456 364.65234375 399.5625 C364.79466647 367.01090053 358.76544742 335.28749408 349.203125 304.23828125 C348.83695068 303.00924072 348.83695068 303.00924072 348.46337891 301.75537109 C341.39049993 278.13092958 330.74663865 255.43610527 318.203125 234.23828125 C317.79529785 233.54524902 317.3874707 232.8522168 316.96728516 232.13818359 C306.26692798 214.1090506 293.67913371 197.2877084 279.5390625 181.8203125 C277.63350378 179.71400094 275.77058168 177.58268234 273.9140625 175.43359375 C270.24473925 171.23327472 266.39853337 167.24138577 262.453125 163.30078125 C261.40161255 162.25047729 261.40161255 162.25047729 260.32885742 161.17895508 C255.70559056 156.60974912 250.99703566 152.37047198 245.87890625 148.359375 C243.44547819 146.4303948 241.11153629 144.41774769 238.78125 142.36645508 C225.51978424 130.78524001 210.43294485 121.42874274 195.31152344 112.48632812 C193.95975309 111.68616022 192.61113035 110.88063648 191.26660156 110.06835938 C165.24714764 94.37235842 135.65011735 83.41977805 106.203125 76.23828125 C105.58212921 76.08615173 104.96113342 75.93402222 104.32131958 75.77728271 C57.17504976 64.27812383 4.87896479 62.14756437 -42.796875 72.23828125 Z " fill="#FFFFFF" transform="translate(430.796875,45.76171875)"/>
<path d="M0 0 C1.06092865 -0.00570007 2.1218573 -0.01140015 3.2149353 -0.01727295 C5.45545472 -0.02667163 7.69598765 -0.03323637 9.93652344 -0.03710938 C13.27825849 -0.0467093 16.61934904 -0.07773866 19.9609375 -0.109375 C39.62824146 -0.20707262 58.84542558 1.78988246 78.0859375 5.890625 C79.29016357 6.14553711 80.49438965 6.40044922 81.73510742 6.66308594 C108.65856397 12.56344154 134.41905833 22.19004546 158.7109375 35.203125 C159.44538086 35.595 160.17982422 35.986875 160.93652344 36.390625 C170.51445778 41.53098389 179.86043401 46.87071492 188.7109375 53.203125 C189.79640869 53.9772876 189.79640869 53.9772876 190.90380859 54.76708984 C207.92790712 66.96752151 207.92790712 66.96752151 215.41015625 74.04296875 C217.35518011 75.8691117 219.33696331 77.6092471 221.359375 79.34765625 C233.41334919 89.85829599 245.06174061 101.42923909 254.7109375 114.203125 C255.47792969 115.16476562 256.24492188 116.12640625 257.03515625 117.1171875 C288.00337265 156.07304259 308.49312904 202.35780485 318.0234375 251.078125 C318.26602295 252.31248291 318.5086084 253.54684082 318.75854492 254.81860352 C322.03112489 272.29896968 323.03748312 289.29046717 322.97167969 307.0637207 C322.96089998 310.52768227 322.97166775 313.99113159 322.984375 317.45507812 C322.99588626 338.85969805 322.99588626 338.85969805 320.7109375 349.203125 C289.59041363 310.46348564 289.59041363 310.46348564 292.55126953 282.53100586 C292.60395996 281.76280518 292.65665039 280.99460449 292.7109375 280.203125 C292.3809375 279.873125 292.0509375 279.543125 291.7109375 279.203125 C291.41240604 277.47848661 291.16930281 275.74420578 290.94921875 274.0078125 C287.44718307 247.7106731 280.76795637 222.76133925 270.7109375 198.203125 C269.82535156 198.66460937 268.93976562 199.12609375 268.02734375 199.6015625 C267.4342189 199.91056488 266.84109406 200.21956726 266.22999573 200.53793335 C264.92695972 201.23068409 263.63273079 201.9402638 262.3480072 202.66641235 C258.69500211 204.71727902 255.20089333 206.4379176 251.2109375 207.73046875 C246.13534828 209.61147923 241.90064357 211.69475833 238.7109375 216.203125 C235.87073219 225.57217688 236.73026013 235.94293123 237.08007812 245.63061523 C237.19434543 249.30390098 237.21099405 252.97755901 237.23632812 256.65234375 C237.30003841 263.83975174 237.47079624 271.01921465 237.7109375 278.203125 C232.42198772 277.17548258 227.15908149 276.14426468 221.95703125 274.73046875 C221.00119141 274.47072266 220.04535156 274.21097656 219.06054688 273.94335938 C218.09955078 273.67845703 217.13855469 273.41355469 216.1484375 273.140625 C215.15263672 272.87185547 214.15683594 272.60308594 213.13085938 272.32617188 C212.18662109 272.06771484 211.24238281 271.80925781 210.26953125 271.54296875 C209.41673584 271.30956787 208.56394043 271.07616699 207.68530273 270.83569336 C205.7109375 270.203125 205.7109375 270.203125 204.7109375 269.203125 C204.61650415 266.90258665 204.59351622 264.59910327 204.59741211 262.29663086 C204.59726608 261.57472061 204.59712006 260.85281036 204.5969696 260.10902405 C204.59766881 257.71197553 204.60546155 255.31500377 204.61328125 252.91796875 C204.6151454 251.26030011 204.61656932 249.60263093 204.61756897 247.94496155 C204.62139438 243.57358286 204.63122485 239.20223719 204.64227295 234.83087158 C204.65248658 230.37358039 204.65706649 225.91628389 204.66210938 221.45898438 C204.6728471 212.70701607 204.68992379 203.95507464 204.7109375 195.203125 C205.3972374 194.81960876 206.08353729 194.43609253 206.79063416 194.04095459 C225.08388832 183.83852879 225.08388832 183.83852879 243.2734375 173.453125 C244.30533203 172.8653125 245.33722656 172.2775 246.40039062 171.671875 C247.37041016 171.10984375 248.34042969 170.5478125 249.33984375 169.96875 C250.18619385 169.48180664 251.03254395 168.99486328 251.90454102 168.49316406 C252.50065186 168.06745117 253.0967627 167.64173828 253.7109375 167.203125 C253.7109375 163.39879145 250.83921773 160.12374839 248.8984375 156.953125 C248.16596802 155.75260498 248.16596802 155.75260498 247.41870117 154.52783203 C242.71945652 146.97029941 237.39333107 140.03958303 231.7109375 133.203125 C227.82027067 133.79444356 224.97356653 134.96227508 221.5625 136.90625 C220.56911621 137.46771729 219.57573242 138.02918457 218.55224609 138.60766602 C217.49086426 139.21666748 216.42948242 139.82566895 215.3359375 140.453125 C214.22686035 141.08210693 213.1177832 141.71108887 211.97509766 142.35913086 C209.67256225 143.66549332 207.37163117 144.97468731 205.07226562 146.28662109 C201.02365939 148.59498534 196.96517588 150.88552027 192.90576172 153.17480469 C189.11958255 155.31079979 185.33674925 157.45268699 181.55371094 159.59423828 C176.77400013 162.29934771 171.99236648 165.0010541 167.2109375 167.703125 C165.29426174 168.78644225 163.37759507 169.86977557 161.4609375 170.953125 C135.5859375 185.578125 135.5859375 185.578125 109.7109375 200.203125 C109.71315811 200.77812241 109.71537872 201.35311981 109.71766663 201.94554138 C109.76903409 215.96011264 109.776084 229.97412643 109.73428345 243.98873901 C109.71512838 250.76630342 109.71077288 257.54326458 109.74169922 264.32080078 C109.77151116 270.86334063 109.75949625 277.40503461 109.72213745 283.94754028 C109.71469922 286.44173962 109.72120432 288.93602132 109.74197388 291.43014526 C109.76870942 294.92862819 109.74556758 298.42353477 109.7109375 301.921875 C109.73034897 302.94974625 109.74976044 303.97761749 109.76976013 305.03663635 C109.65617879 310.66434894 108.89845524 313.63420406 104.8828125 317.70507812 C103.51633914 318.89930628 102.12607338 320.06698206 100.7109375 321.203125 C99.45910283 322.28433778 98.20881481 323.36734725 96.9609375 324.453125 C96.30996094 325.01 95.65898438 325.566875 94.98828125 326.140625 C91.51424026 329.28692628 88.25667179 332.64827871 85.01074219 336.02832031 C82.00239975 339.10871885 79.49838337 340.93065748 75.7109375 343.203125 C75.7109375 289.083125 75.7109375 234.963125 75.7109375 179.203125 C82.9709375 175.243125 90.2309375 171.283125 97.7109375 167.203125 C101.53151975 165.06912719 105.34635062 162.93144601 109.1484375 160.765625 C111.07419188 159.67312972 112.99997396 158.58068326 114.92578125 157.48828125 C115.88081543 156.94574707 116.83584961 156.40321289 117.81982422 155.84423828 C122.61288707 153.1235012 127.4122097 150.41385362 132.2109375 147.703125 C134.12763448 146.6198453 136.04430114 145.53651196 137.9609375 144.453125 C141.79427083 142.28645833 145.62760417 140.11979167 149.4609375 137.953125 C150.41025146 137.41655273 151.35956543 136.87998047 152.33764648 136.32714844 C154.2486044 135.24704885 156.1595744 134.16697062 158.07055664 133.08691406 C162.94966787 130.32928217 167.82854952 127.57124539 172.70703125 124.8125 C183.70088799 118.59608309 194.69937874 112.38813696 205.7109375 106.203125 C196.17563519 96.55385985 196.17563519 96.55385985 185.5234375 88.203125 C184.5953125 87.543125 183.6671875 86.883125 182.7109375 86.203125 C182.7109375 85.543125 182.7109375 84.883125 182.7109375 84.203125 C182.13214844 83.92984375 181.55335938 83.6565625 180.95703125 83.375 C178.04663423 81.85653199 175.46504014 79.95360882 172.80859375 78.03125 C170.70716056 76.94411131 170.70716056 76.94411131 168.49584961 77.92480469 C165.25974611 79.41022925 162.15588707 81.08418753 159.0546875 82.828125 C158.4299353 83.17568848 157.80518311 83.52325195 157.16149902 83.88134766 C155.17639526 84.98579487 153.19341835 86.09397736 151.2109375 87.203125 C148.59823545 88.66486538 145.98339542 90.12267062 143.3671875 91.578125 C142.7743396 91.91150879 142.1814917 92.24489258 141.57067871 92.58837891 C138.35624702 94.37613824 135.15992819 95.92308722 131.7109375 97.203125 C132.0409375 98.193125 132.3709375 99.183125 132.7109375 100.203125 C133.5440714 113.32498398 129.45779698 125.75536772 121.0859375 135.890625 C111.68175176 145.89696199 99.67855273 150.95609773 86.0859375 151.453125 C73.2013005 151.25995203 61.89159199 146.3787573 52.4609375 137.703125 C42.84109444 127.43991664 39.01071234 115.96421752 38.7109375 102.203125 C39.52015938 89.44598003 45.70691102 77.65223632 54.9609375 68.953125 C66.14381277 59.50227755 78.32134852 57.29514382 92.52832031 58.00341797 C98.27745424 58.52945729 103.98754335 60.26571468 108.71411133 63.62817383 C111.04969253 65.20585625 113.01164141 66.37431475 115.7109375 67.203125 C119.37519646 66.39094963 122.16889746 64.57254248 125.2734375 62.515625 C126.09134766 62.01611328 126.90925781 61.51660156 127.75195312 61.00195312 C129.76179978 59.76783676 131.74330662 58.50310432 133.7109375 57.203125 C110.51401367 38.4078242 67.18589317 32.87977344 37.96861267 30.67527771 C36.79703582 30.58648566 35.62545897 30.49769361 34.41837978 30.4062109 C33.52492383 30.33919255 32.63146788 30.27217421 31.7109375 30.203125 C31.60963056 71.24932465 31.56078892 112.29527916 31.58246648 153.34160633 C31.58497974 158.18574523 31.58705792 163.02988422 31.58886719 167.87402344 C31.58941845 169.3206155 31.58941845 169.3206155 31.58998086 170.79643165 C31.59489627 186.41884768 31.56455285 202.04100684 31.52121495 217.66335501 C31.47754088 233.68931138 31.47167403 249.71495881 31.5010196 265.74094951 C31.51793767 275.63280182 31.50524667 285.52371134 31.45486827 295.4154536 C31.42316053 302.19550977 31.42812481 308.97491644 31.46209352 315.7549593 C31.48061572 319.66914888 31.48280933 323.58157982 31.44150734 327.49563408 C31.40404662 331.07946191 31.41263492 334.6601215 31.45788075 338.24383222 C31.47001521 340.15420882 31.43284751 342.06470194 31.3939513 343.97472107 C31.46324217 347.34267378 31.60272639 350.02031115 32.7109375 353.203125 C35.73936463 356.01605697 38.96045039 357.5474423 42.7109375 359.203125 C51.8561359 366.33637975 57.06397041 376.00716962 59.7109375 387.203125 C61.26734803 400.52535399 59.5030824 413.09897576 51.3984375 424.140625 C50.2036122 425.5251865 48.97470578 426.88119165 47.7109375 428.203125 C47.11539062 428.82703125 46.51984375 429.4509375 45.90625 430.09375 C36.88979282 438.69866764 25.67636594 443.13131951 13.296875 443.23046875 C-0.49937899 442.64435338 -11.80687838 438.15728363 -21.39453125 427.96484375 C-29.99410816 417.34830851 -34.46337649 404.95327422 -33.2890625 391.203125 C-30.99356257 377.82777105 -25.54536654 366.37508861 -14.50390625 358.12109375 C-9.91891878 355.09117606 -6.75933566 353.29717963 -1.2890625 352.203125 C-1.2890625 245.943125 -1.2890625 139.683125 -1.2890625 30.203125 C-19.44378288 31.62043197 -19.44378288 31.62043197 -37.3515625 34.265625 C-39.0061145 34.57935059 -39.0061145 34.57935059 -40.6940918 34.89941406 C-61.67766043 39.10288862 -81.97348623 45.84255204 -101.51855469 54.51977539 C-103.2890625 55.203125 -103.2890625 55.203125 -105.2890625 55.203125 C-105.2890625 55.863125 -105.2890625 56.523125 -105.2890625 57.203125 C-104.62519531 57.44160156 -103.96132813 57.68007812 -103.27734375 57.92578125 C-100.89135082 58.94567627 -98.80934611 60.02085222 -96.58203125 61.32421875 C-89.60869135 65.81040676 -89.60869135 65.81040676 -81.81640625 66.71875 C-79.87462105 65.41569487 -79.87462105 65.41569487 -78.1015625 63.796875 C-71.03126122 57.57988595 -59.24901572 58.46521567 -50.42333984 58.99169922 C-38.94241932 60.12902216 -29.04689172 66.56145129 -21.2109375 74.7421875 C-15.29307998 82.31993188 -11.17496012 91.60590083 -10.2890625 101.203125 C-10.21945312 101.92628906 -10.14984375 102.64945312 -10.078125 103.39453125 C-9.51189868 115.56839713 -14.24045438 127.60069451 -21.9140625 136.890625 C-31.31824824 146.89696199 -43.32144727 151.95609773 -56.9140625 152.453125 C-69.7986995 152.25995203 -81.10840801 147.3787573 -90.5390625 138.703125 C-100.17005983 128.42801638 -103.9383475 117.01252823 -104.2890625 103.203125 C-104.06104661 100.83575 -103.70069136 98.54880414 -103.2890625 96.203125 C-104.01270996 95.92694336 -104.73635742 95.65076172 -105.48193359 95.36621094 C-108.17015914 94.25239058 -110.65498112 92.99540322 -113.203125 91.59375 C-114.12996094 91.08585937 -115.05679688 90.57796875 -116.01171875 90.0546875 C-116.96949219 89.52617187 -117.92726563 88.99765625 -118.9140625 88.453125 C-120.31591797 87.68355469 -120.31591797 87.68355469 -121.74609375 86.8984375 C-123.6310887 85.86364027 -125.51553113 84.82783593 -127.39941406 83.79101562 C-132.02305496 81.25027885 -136.65597076 78.72657579 -141.2890625 76.203125 C-142.05992187 76.780625 -142.83078125 77.358125 -143.625 77.953125 C-144.62789062 78.695625 -145.63078125 79.438125 -146.6640625 80.203125 C-147.66179687 80.945625 -148.65953125 81.688125 -149.6875 82.453125 C-152.2890625 84.203125 -152.2890625 84.203125 -154.2890625 84.203125 C-154.2890625 84.863125 -154.2890625 85.523125 -154.2890625 86.203125 C-156.0546875 87.796875 -156.0546875 87.796875 -158.5390625 89.703125 C-162.68826636 92.94413402 -166.79615548 96.22108113 -170.8515625 99.578125 C-171.86347656 100.41085938 -172.87539063 101.24359375 -173.91796875 102.1015625 C-176.3318028 103.97800462 -176.3318028 103.97800462 -177.2890625 106.203125 C-176.47050781 106.45191406 -175.65195312 106.70070313 -174.80859375 106.95703125 C-170.70135512 108.41120342 -166.875422 110.20715964 -162.9765625 112.140625 C-161.88504883 112.66172852 -161.88504883 112.66172852 -160.77148438 113.19335938 C-158.90301216 114.11801804 -157.09050333 115.15384286 -155.2890625 116.203125 C-154.9590625 117.193125 -154.6290625 118.183125 -154.2890625 119.203125 C-152.29429552 119.88529004 -150.2925232 120.54693167 -148.2890625 121.203125 C-144.73930349 123.01568692 -141.30271335 125.02296859 -137.8515625 127.015625 C-135.78002804 128.19935898 -133.70841117 129.38294875 -131.63671875 130.56640625 C-130.5811377 131.17178223 -129.52555664 131.7771582 -128.43798828 132.40087891 C-123.56664842 135.18892595 -118.67758998 137.94536472 -113.7890625 140.703125 C-111.86968535 141.78757227 -109.95041478 142.8722082 -108.03125 143.95703125 C-106.6076416 144.76164795 -106.6076416 144.76164795 -105.15527344 145.58251953 C-102.30614695 147.19346515 -99.45767666 148.80556528 -96.609375 150.41796875 C-94.71094669 151.49220374 -92.81250919 152.56642248 -90.9140625 153.640625 C-89.51389893 154.43351929 -89.51389893 154.43351929 -88.08544922 155.24243164 C-82.93502588 158.15543367 -77.77463722 161.04926899 -72.6015625 163.921875 C-70.92779541 164.85302124 -70.92779541 164.85302124 -69.22021484 165.80297852 C-67.08171789 166.9916114 -64.94152709 168.17720415 -62.79931641 169.35913086 C-61.32857666 170.17716187 -61.32857666 170.17716187 -59.828125 171.01171875 C-58.97428223 171.48407959 -58.12043945 171.95644043 -57.24072266 172.44311523 C-55.77965088 173.31432007 -55.77965088 173.31432007 -54.2890625 174.203125 C-53.19068285 174.75620581 -53.19068285 174.75620581 -52.07011372 175.32045996 C-45.80115024 178.82410362 -45.80115024 178.82410362 -44.45982826 182.43620276 C-44.15187171 185.20724733 -44.13210061 187.85598628 -44.20677185 190.6434021 C-44.19523712 192.21917603 -44.19523712 192.21917603 -44.18346936 193.82678378 C-44.16864248 197.34735352 -44.21813629 200.86406345 -44.26733398 204.38427734 C-44.26987262 206.90729684 -44.26844772 209.43032299 -44.26335144 211.95333862 C-44.26130195 217.38527921 -44.28682382 222.81597664 -44.33749199 228.24766159 C-44.41069874 236.10062793 -44.43408103 243.95312407 -44.44538391 251.80639465 C-44.46507204 264.54811732 -44.52493956 277.28932086 -44.61010742 290.03076172 C-44.69274394 302.40638637 -44.756437 314.78186992 -44.79467773 327.15771484 C-44.79704225 327.92080937 -44.79940676 328.6839039 -44.80184292 329.4701225 C-44.81358843 333.29842005 -44.82496176 337.12671859 -44.83615005 340.95501781 C-44.92942079 372.70476761 -45.08858203 404.45386556 -45.2890625 436.203125 C-44.34216553 436.50710205 -43.39526855 436.8110791 -42.41967773 437.12426758 C-37.95891193 438.66151503 -34.87881503 441.20700859 -31.2890625 444.203125 C-30.68835938 444.68394531 -30.08765625 445.16476562 -29.46875 445.66015625 C-21.33339785 452.86523271 -16.27781811 464.49160588 -15.2890625 475.203125 C-15.21945312 475.92628906 -15.14984375 476.64945313 -15.078125 477.39453125 C-14.51189868 489.56839713 -19.24045438 501.60069451 -26.9140625 510.890625 C-36.31824824 520.89696199 -48.32144727 525.95609773 -61.9140625 526.453125 C-74.7986995 526.25995203 -86.10840801 521.3787573 -95.5390625 512.703125 C-105.15890556 502.43991664 -108.98928766 490.96421752 -109.2890625 477.203125 C-108.47540458 464.37604715 -102.25836745 452.52952751 -92.8515625 443.890625 C-83.75238585 436.203125 -83.75238585 436.203125 -78.2890625 436.203125 C-78.6190625 358.323125 -78.9490625 280.443125 -79.2890625 200.203125 C-88.8590625 194.923125 -98.4290625 189.643125 -108.2890625 184.203125 C-119.0390625 178.078125 -119.0390625 178.078125 -124.0546875 175.1953125 C-129.94081858 171.81924421 -135.86455 168.511233 -141.7890625 165.203125 C-149.47839092 160.90849095 -157.14801631 156.58306218 -164.7890625 152.203125 C-166.47524908 151.24216761 -168.16144717 150.28123042 -169.84765625 149.3203125 C-173.91800474 146.99765423 -177.96618049 144.63901488 -182.01171875 142.2734375 C-184.29138615 140.95784713 -186.5713299 139.64273551 -188.8515625 138.328125 C-189.92921875 137.69003906 -191.006875 137.05195313 -192.1171875 136.39453125 C-193.12394531 135.81832031 -194.13070312 135.24210938 -195.16796875 134.6484375 C-196.0607251 134.12781738 -196.95348145 133.60719727 -197.87329102 133.07080078 C-200.24095799 131.94394137 -200.24095799 131.94394137 -202.47216797 132.89990234 C-212.53818972 140.12006145 -219.14033307 154.75592925 -225.2890625 165.203125 C-222.80895117 167.99207446 -220.09091871 169.57306126 -216.828125 171.35546875 C-215.714375 171.96841797 -214.600625 172.58136719 -213.453125 173.21289062 C-212.27360567 173.8557774 -211.0939187 174.49835668 -209.9140625 175.140625 C-197.95429367 181.68901955 -186.13250113 188.43544578 -174.2890625 195.203125 C-174.2890625 227.543125 -174.2890625 259.883125 -174.2890625 293.203125 C-172.3090625 293.863125 -170.3290625 294.523125 -168.2890625 295.203125 C-167.3815625 295.8425 -166.4740625 296.481875 -165.5390625 297.140625 C-162.4282126 298.52659415 -162.4282126 298.52659415 -159.93359375 297.3515625 C-158.24769906 296.47928416 -156.58389355 295.56251308 -154.94921875 294.59765625 C-144.99678545 289.38030135 -131.32310265 289.55926943 -120.7265625 292.828125 C-107.54424292 298.02832279 -98.51938017 306.92499582 -92.69921875 319.73828125 C-90.8735739 324.22400695 -89.7336535 328.38672252 -89.2890625 333.203125 C-89.21945312 333.92628906 -89.14984375 334.64945312 -89.078125 335.39453125 C-88.51189868 347.56839713 -93.24045438 359.60069451 -100.9140625 368.890625 C-110.31824824 378.89696199 -122.32144727 383.95609773 -135.9140625 384.453125 C-148.7986995 384.25995203 -160.10840801 379.3787573 -169.5390625 370.703125 C-181.4980857 357.94429451 -183.45670439 344.00456766 -183.2890625 327.203125 C-184.21972534 326.67356201 -184.21972534 326.67356201 -185.16918945 326.13330078 C-187.98062574 324.53270586 -190.79110337 322.93043503 -193.6015625 321.328125 C-194.57802734 320.77253906 -195.55449219 320.21695312 -196.56054688 319.64453125 C-197.49833984 319.10957031 -198.43613281 318.57460938 -199.40234375 318.0234375 C-200.69845581 317.28504639 -200.69845581 317.28504639 -202.02075195 316.53173828 C-203.81316685 315.48187047 -205.56068482 314.35537679 -207.2890625 313.203125 C-207.64550781 310.31640625 -207.64550781 310.31640625 -207.6171875 306.515625 C-207.61567688 305.80962662 -207.61416626 305.10362823 -207.61260986 304.37623596 C-207.6030562 301.98485564 -207.57119148 299.59430123 -207.5390625 297.203125 C-207.52701234 295.51294617 -207.51597175 293.82275989 -207.50585938 292.13256836 C-207.461741 286.15565171 -207.37777326 280.17952549 -207.2890625 274.203125 C-207.27125732 272.98989563 -207.25345215 271.77666626 -207.23510742 270.52667236 C-206.96555179 252.41798209 -206.64349987 234.31034456 -206.2890625 216.203125 C-207.43379532 215.75676697 -207.43379532 215.75676697 -208.60165405 215.3013916 C-211.74119961 214.01834956 -214.61548954 212.44810794 -217.578125 210.796875 C-218.16322845 210.47150757 -218.74833191 210.14614014 -219.35116577 209.81091309 C-220.58059609 209.126485 -221.80923237 208.44062884 -223.03710938 207.75341797 C-224.9135485 206.70341262 -226.79248185 205.6579883 -228.671875 204.61328125 C-237.82878612 199.50997592 -237.82878612 199.50997592 -241.2890625 197.203125 C-253.24157129 222.41549597 -259.99037782 249.800935 -262.99536133 277.46679688 C-263.2890625 279.203125 -263.2890625 279.203125 -264.2890625 280.203125 C-264.3881681 282.06948288 -264.41705511 283.93960694 -264.41845703 285.80859375 C-264.42160919 287.00653564 -264.42476135 288.20447754 -264.42800903 289.4387207 C-264.4259848 290.74284912 -264.42396057 292.04697754 -264.421875 293.390625 C-264.4225481 294.73201515 -264.42351818 296.07340519 -264.42477417 297.41479492 C-264.42625086 300.22934121 -264.42409754 303.04385582 -264.41943359 305.85839844 C-264.41373631 309.47353131 -264.41701547 313.08858995 -264.42300606 316.70372009 C-264.42661247 319.47457442 -264.42547272 322.24541102 -264.42287827 325.01626587 C-264.42188283 327.00002083 -264.42492991 328.98377647 -264.42800903 330.9675293 C-264.42485687 332.16547119 -264.42170471 333.36341309 -264.41845703 334.59765625 C-264.41766144 335.65831299 -264.41686584 336.71896973 -264.41604614 337.81176758 C-264.55878529 340.15627443 -264.55878529 340.15627443 -263.2890625 341.203125 C-263.24621074 342.698614 -263.24990911 344.19548845 -263.2734375 345.69140625 C-263.16253863 356.20113292 -263.16253863 356.20113292 -258.4609375 365.20898438 C-253.51793481 368.89463236 -247.91547658 371.33429212 -242.29882812 373.81689453 C-237.28254746 376.12728078 -232.56350921 378.93599594 -227.7890625 381.703125 C-225.87599976 382.78042313 -223.96193563 383.85594494 -222.046875 384.9296875 C-218.11670608 387.14852563 -214.22189428 389.41805214 -210.34375 391.7265625 C-209.38919922 392.28923828 -208.43464844 392.85191406 -207.45117188 393.43164062 C-205.63544011 394.50428385 -203.8264209 395.58839816 -202.02539062 396.68554688 C-201.21263672 397.16314453 -200.39988281 397.64074219 -199.5625 398.1328125 C-198.85528809 398.55804199 -198.14807617 398.98327148 -197.41943359 399.42138672 C-194.06244452 400.65323167 -191.46347408 399.73506436 -188.296875 398.30078125 C-187.0467655 397.61348038 -185.79676457 396.925982 -184.546875 396.23828125 C-174.40351679 391.58777965 -161.31773361 391.56092569 -150.7265625 394.828125 C-137.54424292 400.02832279 -128.51938017 408.92499582 -122.69921875 421.73828125 C-120.8735739 426.22400695 -119.7336535 430.38672252 -119.2890625 435.203125 C-119.21945312 435.92628906 -119.14984375 436.64945313 -119.078125 437.39453125 C-118.51189868 449.56839713 -123.24045438 461.60069451 -130.9140625 470.890625 C-140.31824824 480.89696199 -152.32144727 485.95609773 -165.9140625 486.453125 C-178.7986995 486.25995203 -190.10840801 481.3787573 -199.5390625 472.703125 C-205.54410576 466.40118168 -210.65591027 457.85012848 -212.2890625 449.203125 C-212.12939453 447.21118164 -212.12939453 447.21118164 -211.796875 445.11328125 C-211.27579747 439.87485249 -210.99656618 435.06214491 -213.2890625 430.203125 C-218.89629328 424.79939791 -226.30338709 421.77164715 -233.32373047 418.61083984 C-237.84304099 416.46541382 -242.06201952 413.86997186 -246.2890625 411.203125 C-234.85637954 442.54836172 -218.3021878 471.25629775 -195.55078125 495.7578125 C-193.5985737 497.8684894 -191.71599972 500.01540057 -189.8515625 502.203125 C-181.24708715 512.05696211 -171.68626174 520.45195133 -161.375 528.46875 C-160.45976562 529.18546875 -159.54453125 529.9021875 -158.6015625 530.640625 C-157.35826172 531.59775391 -157.35826172 531.59775391 -156.08984375 532.57421875 C-155.49558594 533.11175781 -154.90132812 533.64929688 -154.2890625 534.203125 C-154.2890625 534.863125 -154.2890625 535.523125 -154.2890625 536.203125 C-153.70979004 536.48220703 -153.13051758 536.76128906 -152.53369141 537.04882812 C-150.38705922 538.15273034 -148.39890232 539.35848632 -146.375 540.671875 C-115.44281722 560.57721534 -83.22002602 575.63790503 -47.2890625 584.203125 C-45.73566162 584.59056885 -45.73566162 584.59056885 -44.15087891 584.98583984 C-7.49898219 593.73174072 39.1876799 593.53220851 75.7109375 584.203125 C76.97808594 583.88666016 78.24523437 583.57019531 79.55078125 583.24414062 C113.41034551 574.64921613 144.81092696 560.67241913 173.90942383 541.32543945 C177.30505218 539.21001683 180.12577577 537.96245153 184.12475586 537.51708984 C185.42146461 537.3671608 185.42146461 537.3671608 186.74436951 537.21420288 C187.67048538 537.11515656 188.59660126 537.01611023 189.55078125 536.9140625 C190.50988907 536.80591217 191.46899689 536.69776184 192.45716858 536.58633423 C194.48333626 536.35931512 196.50991759 536.13596203 198.53686523 535.91601562 C201.63425124 535.57966551 204.73023736 535.23224633 207.82617188 534.8828125 C209.79680266 534.66341181 211.76750368 534.44464081 213.73828125 534.2265625 C214.66237289 534.12346771 215.58646454 534.02037292 216.53855896 533.91415405 C217.40618362 533.82050568 218.27380829 533.7268573 219.16772461 533.63037109 C220.3054557 533.50618301 220.3054557 533.50618301 221.46617126 533.37948608 C223.88943245 533.18910146 226.28119859 533.17384721 228.7109375 533.203125 C208.74158603 557.90205971 177.21159581 576.85349556 148.78759766 590.22460938 C147.35905953 590.89773197 145.93443903 591.5792118 144.51318359 592.26757812 C109.0280267 609.42390638 67.97850687 620.236211 28.421875 620.40625 C27.36094635 620.41195007 26.3000177 620.41765015 25.2069397 620.42352295 C22.96642028 620.43292163 20.72588735 620.43948637 18.48535156 620.44335938 C15.14361651 620.4529593 11.80252596 620.48398866 8.4609375 620.515625 C-11.20636646 620.61332262 -30.42355058 618.61636754 -49.6640625 614.515625 C-51.47040161 614.13325684 -51.47040161 614.13325684 -53.31323242 613.74316406 C-80.23668897 607.84280846 -105.99718333 598.21620454 -130.2890625 585.203125 C-131.39072754 584.6153125 -131.39072754 584.6153125 -132.51464844 584.015625 C-142.09258278 578.87526611 -151.43855901 573.53553508 -160.2890625 567.203125 C-161.01270996 566.6870166 -161.73635742 566.1709082 -162.48193359 565.63916016 C-179.50603212 553.43872849 -179.50603212 553.43872849 -186.98828125 546.36328125 C-188.93330511 544.5371383 -190.91508831 542.7970029 -192.9375 541.05859375 C-204.99147419 530.54795401 -216.63986561 518.97701091 -226.2890625 506.203125 C-227.05605469 505.24148438 -227.82304687 504.27984375 -228.61328125 503.2890625 C-259.58149765 464.33320741 -280.07125404 418.04844515 -289.6015625 369.328125 C-289.84414795 368.09376709 -290.0867334 366.85940918 -290.33666992 365.58764648 C-293.56820971 348.32649494 -294.63914758 331.49651751 -294.60473633 313.94677734 C-294.60158641 310.60350572 -294.62509712 307.26113126 -294.65039062 303.91796875 C-294.70899023 284.2741896 -292.69789033 265.04550081 -288.6015625 245.828125 C-288.34592529 244.62172363 -288.09028809 243.41532227 -287.8269043 242.17236328 C-277.91024761 196.95477343 -257.8852023 154.56839526 -229.2890625 118.203125 C-228.50789063 117.20796875 -227.72671875 116.2128125 -226.921875 115.1875 C-213.24681884 98.1545119 -197.69458773 81.45210689 -180.2890625 68.203125 C-179.00554869 67.19262662 -177.72308044 66.18079941 -176.44140625 65.16796875 C-127.09708342 26.45879071 -63.21795639 0.27175009 0 0 Z M74.7109375 97.203125 C72.35851403 100.41097518 72.2425166 103.29961752 72.7109375 107.203125 C74.36116759 110.26783802 75.7670135 112.51091407 78.5859375 114.578125 C83.07737435 115.89913584 85.81238446 115.68696125 89.9609375 113.453125 C93.59426329 110.4804039 94.48629739 108.92536585 95.0859375 104.328125 C94.60635295 100.33158704 93.24354317 98.29853192 90.7109375 95.203125 C85.06203414 91.06059587 79.71381172 93.10986427 74.7109375 97.203125 Z M-67.2890625 98.203125 C-69.64148597 101.41097518 -69.7574834 104.29961752 -69.2890625 108.203125 C-67.63883241 111.26783802 -66.2329865 113.51091407 -63.4140625 115.578125 C-58.92262565 116.89913584 -56.18761554 116.68696125 -52.0390625 114.453125 C-48.40573671 111.4804039 -47.51370261 109.92536585 -46.9140625 105.328125 C-47.39364705 101.33158704 -48.75645683 99.29853192 -51.2890625 96.203125 C-56.93796586 92.06059587 -62.28618828 94.10986427 -67.2890625 98.203125 Z M-144.2890625 328.203125 C-146.64148597 331.41097518 -146.7574834 334.29961752 -146.2890625 338.203125 C-144.63883241 341.26783802 -143.2329865 343.51091407 -140.4140625 345.578125 C-135.92262565 346.89913584 -133.18761554 346.68696125 -129.0390625 344.453125 C-125.40573671 341.4804039 -124.51370261 339.92536585 -123.9140625 335.328125 C-124.39364705 331.33158704 -125.75645683 329.29853192 -128.2890625 326.203125 C-133.93796586 322.06059587 -139.28618828 324.10986427 -144.2890625 328.203125 Z M4.7109375 388.203125 C2.35851403 391.41097518 2.2425166 394.29961752 2.7109375 398.203125 C4.36116759 401.26783802 5.7670135 403.51091407 8.5859375 405.578125 C13.07737435 406.89913584 15.81238446 406.68696125 19.9609375 404.453125 C23.59426329 401.4804039 24.48629739 399.92536585 25.0859375 395.328125 C24.60635295 391.33158704 23.24354317 389.29853192 20.7109375 386.203125 C15.06203414 382.06059587 9.71381172 384.10986427 4.7109375 388.203125 Z M-175.2890625 435.203125 C-177.64148597 438.41097518 -177.7574834 441.29961752 -177.2890625 445.203125 C-175.63883241 448.26783802 -174.2329865 450.51091407 -171.4140625 452.578125 C-166.92262565 453.89913584 -164.18761554 453.68696125 -160.0390625 451.453125 C-156.40573671 448.4804039 -155.51370261 446.92536585 -154.9140625 442.328125 C-155.39364705 438.33158704 -156.75645683 436.29853192 -159.2890625 433.203125 C-164.93796586 429.06059587 -170.28618828 431.10986427 -175.2890625 435.203125 Z M-72.2890625 472.203125 C-74.86701505 476.39449004 -74.97021207 480.41015793 -74.2890625 485.203125 C-72.65274403 488.417322 -71.31597338 490.45005702 -68.4140625 492.578125 C-65.47797422 493.44168038 -63.34391324 493.56970709 -60.2890625 493.203125 C-56.6312407 491.16318592 -54.61960076 489.69893238 -52.2890625 486.203125 C-51.54925136 481.20509859 -51.77103017 477.23918967 -54.0390625 472.703125 C-57.07329936 469.33175071 -58.70081213 468.41028809 -63.1640625 467.828125 C-67.16060046 468.30770955 -69.19365558 469.67051933 -72.2890625 472.203125 Z " fill="#FFFFFF" transform="translate(436.2890625,141.796875)"/>
<path d="M0 0 C26.44340356 22.69551959 43.85604304 51.74388565 47 87 C48.75317028 121.54696789 40.11678605 154.737756 16.64990234 181.02587891 C-6.26679092 205.99722287 -34.99004651 221.87753888 -69.23168945 224.22119141 C-96.78508494 225.20741453 -123.74526326 220.68827016 -147 205 C-147.90492188 204.39671875 -148.80984375 203.7934375 -149.7421875 203.171875 C-177.32926821 183.94688391 -197.05798428 155.28839801 -203.47436523 122.14819336 C-208.98388814 90.02777552 -202.80554096 55.80253268 -184.73828125 28.41796875 C-182.60183942 25.49138865 -180.37701543 22.73416299 -178 20 C-177.57605957 19.50741699 -177.15211914 19.01483398 -176.71533203 18.50732422 C-132.66128124 -32.33913046 -53.5200894 -44.6275207 0 0 Z " fill="#FFFFFF" transform="translate(715,446)"/>
<path d="M0 0 C1.05138534 2.25465224 1.9001605 4.39436632 2.69921875 6.73828125 C2.9391304 7.415457 3.17904205 8.09263275 3.42622375 8.79032898 C3.93174237 10.22504435 4.43152838 11.66179045 4.92602539 13.1003418 C5.68245923 15.29785607 6.45777358 17.48797269 7.23632812 19.67773438 C7.72509515 21.07251882 8.21276171 22.46768948 8.69921875 23.86328125 C8.93041916 24.51758621 9.16161957 25.17189117 9.39982605 25.84602356 C10.52210389 29.13544934 11 31.46802784 11 35 C9.35666496 36.03789581 7.68756133 37.03567924 6 38 C3.67173625 41.21522137 3.60288819 44.10830425 4 48 C5.27688846 50.80915461 6.31099817 52.50106764 8.8125 54.3125 C11.77980823 55.24508259 13.89684156 55.37237901 17 55 C20.32808239 53.11586085 20.32808239 53.11586085 23 51 C26.03603225 52.41770102 28.64251627 54.09273971 31.3359375 56.08203125 C32.15320313 56.68466797 32.97046875 57.28730469 33.8125 57.90820312 C35.0809375 58.85083008 35.0809375 58.85083008 36.375 59.8125 C37.21289062 60.42931641 38.05078125 61.04613281 38.9140625 61.68164062 C43.39409028 64.99587501 47.76439373 68.37834969 52 72 C45.28287613 81.4966234 35.09890164 86.10451238 24.0625 88.6875 C9.65385108 90.1577703 -3.21114382 86.99757904 -14.6640625 77.87890625 C-24.79227978 68.56155833 -29.94287358 57.31283699 -30.91796875 43.765625 C-31.18616139 31.45430559 -26.65215118 20.54825943 -19 11 C-6.27857143 -2.09285714 -6.27857143 -2.09285714 0 0 Z " fill="#FFFFFF" transform="translate(513,579)"/>
<path d="" fill="#FFFFFF" transform="translate(0,0)"/>
</svg>
