<?xml version="1.0" standalone="no"?>
<!DOCTYPE svg PUBLIC "-//W3C//DTD SVG 20010904//EN"
 "http://www.w3.org/TR/2001/REC-SVG-20010904/DTD/svg10.dtd">
<svg version="1.0" xmlns="http://www.w3.org/2000/svg"
 width="667.000000pt" height="667.000000pt" viewBox="0 0 667.000000 667.000000"
 preserveAspectRatio="xMidYMid meet">

<g transform="translate(0.000000,667.000000) scale(0.100000,-0.100000)"
fill="#000000" stroke="none">
<path d="M1311 5195 c-24 -8 -59 -29 -79 -47 -118 -113 -85 -303 66 -369 l42
-18 -1 -228 c-1 -125 -4 -342 -8 -481 l-6 -254 -31 -28 c-35 -31 -108 -61
-229 -93 l-80 -22 131 -6 c166 -9 280 -23 470 -60 227 -44 367 -86 714 -212
335 -122 429 -154 562 -188 266 -68 685 -65 907 7 147 47 144 50 -66 57 -343
12 -465 34 -788 141 -121 41 -346 115 -500 165 -320 104 -404 140 -457 199
-57 63 -72 129 -65 283 8 189 33 246 116 269 22 6 248 10 588 10 l553 0 43
-42 c30 -29 52 -63 66 -102 20 -54 22 -71 15 -185 l-7 -126 34 -77 c18 -43 36
-78 39 -78 3 0 18 37 33 83 25 78 27 95 27 264 l0 181 39 35 c31 28 51 37 93
42 29 3 304 5 611 3 l559 -3 30 -34 30 -34 -7 -179 c-7 -173 -7 -180 11 -174
11 3 120 35 244 71 249 72 266 82 288 168 6 23 14 181 18 351 6 300 7 309 29
342 97 143 -46 340 -214 294 -139 -37 -194 -208 -101 -314 29 -33 30 -35 40
-207 5 -96 10 -180 10 -188 0 -7 -16 1 -37 20 -111 96 -331 218 -483 267 -233
74 -179 71 -1230 74 l-945 3 -125 -32 c-238 -60 -454 -152 -628 -267 -71 -47
-83 -52 -78 -33 3 12 15 87 27 167 26 174 31 386 10 444 -22 62 -85 123 -144
141 -60 18 -78 18 -136 0z"/>
<path d="M5375 3934 c-11 -3 -67 -16 -125 -30 -58 -14 -316 -95 -573 -180
-650 -215 -898 -271 -1317 -301 l-105 -7 75 -18 c126 -30 294 -48 452 -48 255
0 438 37 798 161 558 192 643 220 740 245 134 33 343 60 590 76 l195 12 -80
18 c-188 44 -364 70 -495 73 -74 2 -144 2 -155 -1z"/>
<path d="M4115 2294 c-27 -2 -144 -11 -260 -19 -115 -9 -397 -34 -625 -55
-639 -61 -813 -71 -1225 -71 -393 0 -606 9 -934 42 -112 11 -205 18 -207 16
-7 -7 210 -67 368 -102 164 -37 423 -76 633 -97 167 -16 803 -16 1030 0 94 7
285 22 425 33 140 11 401 31 580 45 624 48 1199 41 1855 -25 44 -5 82 -7 83
-5 7 5 -247 84 -383 118 -354 89 -586 117 -985 121 -168 1 -327 1 -355 -1z"/>
</g>
</svg>
